<svg xmlns="http://www.w3.org/2000/svg" xmlns:xlink="http://www.w3.org/1999/xlink" width="150px"
                        height="100px" viewBox="25 25 50 50" version="1.1">
                        <g id="surface1">
                            <path style=" stroke:none;fill-rule:nonzero;fill:#f5f7fa;fill-opacity:1;"
                                d="M 48.339844 51.167969 L 48.339844 52.832031 L 47.527344 52.832031 C 47.078125 52.832031 46.683594 52.804688 46.648438 52.765625 C 46.609375 52.730469 46.582031 51.414062 46.582031 49.835938 L 46.582031 46.972656 L 48.242188 46.972656 L 48.242188 47.25 C 48.242188 47.648438 48.308594 47.664062 48.644531 47.351562 C 49.007812 47.011719 49.472656 46.875 50.242188 46.878906 C 50.953125 46.878906 51.554688 47.128906 51.863281 47.546875 C 52.078125 47.835938 52.089844 47.839844 52.21875 47.65625 C 52.5 47.253906 53.203125 46.945312 53.953125 46.898438 C 55.074219 46.824219 55.734375 47.148438 56.179688 47.984375 C 56.382812 48.359375 56.398438 48.539062 56.425781 50.613281 L 56.460938 52.839844 L 55.597656 52.8125 L 54.734375 52.78125 L 54.6875 50.929688 C 54.636719 49.015625 54.582031 48.738281 54.203125 48.539062 C 53.734375 48.289062 52.863281 48.515625 52.617188 48.953125 C 52.53125 49.097656 52.472656 49.769531 52.441406 50.976562 L 52.390625 52.78125 L 50.683594 52.839844 L 50.679688 51.492188 C 50.675781 48.902344 50.46875 48.367188 49.492188 48.460938 C 49.222656 48.488281 48.933594 48.585938 48.8125 48.691406 C 48.40625 49.054688 48.339844 49.410156 48.339844 51.167969 Z M 33.535156 51.878906 L 33.46875 52.832031 L 31.738281 52.832031 L 31.738281 45.214844 L 33.589844 45.214844 L 33.640625 48.675781 L 35.234375 46.953125 L 36.824219 45.234375 L 37.871094 45.195312 C 38.445312 45.175781 38.929688 45.167969 38.953125 45.179688 C 38.96875 45.195312 38.3125 45.9375 37.484375 46.832031 C 36.660156 47.726562 35.996094 48.496094 36.007812 48.539062 C 36.03125 48.617188 37.417969 50.53125 38.5625 52.066406 C 38.828125 52.421875 39.023438 52.742188 38.992188 52.773438 C 38.957031 52.804688 38.484375 52.832031 37.933594 52.832031 L 36.9375 52.832031 L 35.839844 51.367188 C 35.238281 50.5625 34.714844 49.902344 34.679688 49.902344 C 34.640625 49.902344 34.382812 50.132812 34.105469 50.414062 L 33.601562 50.929688 Z M 43.8125 52.597656 C 42.558594 53.15625 41.105469 52.953125 40.125 52.070312 C 39.460938 51.472656 39.234375 51 39.179688 50.085938 C 39.125 49.148438 39.320312 48.519531 39.851562 47.914062 C 40.386719 47.304688 41.140625 46.953125 42.027344 46.898438 C 43.585938 46.796875 44.65625 47.335938 45.234375 48.507812 C 45.511719 49.074219 45.554688 49.257812 45.550781 49.898438 C 45.542969 51.179688 44.964844 52.078125 43.8125 52.597656 Z M 62.082031 52.636719 C 61.527344 52.878906 60.617188 52.953125 59.960938 52.800781 C 59.269531 52.644531 58.4375 52.1875 58.15625 51.808594 C 56.8125 50.011719 57.523438 47.621094 59.589844 47.007812 C 60.234375 46.8125 61.53125 46.871094 62 47.113281 C 62.472656 47.359375 63.078125 47.9375 63.289062 48.355469 C 63.492188 48.753906 63.703125 49.996094 63.609375 50.238281 C 63.5625 50.371094 63.257812 50.390625 61.414062 50.390625 C 60.175781 50.390625 59.277344 50.429688 59.277344 50.480469 C 59.277344 50.53125 59.398438 50.710938 59.542969 50.882812 C 60.070312 51.515625 60.929688 51.640625 61.785156 51.207031 L 62.289062 50.953125 L 62.734375 51.328125 C 62.976562 51.539062 63.179688 51.757812 63.179688 51.820312 C 63.183594 51.96875 62.589844 52.414062 62.082031 52.636719 Z M 81.3125 52.785156 C 80.253906 53.097656 79.261719 52.808594 78.667969 52.011719 C 78.367188 51.609375 78.382812 50.652344 78.703125 50.207031 C 79.078125 49.679688 79.644531 49.488281 80.988281 49.433594 C 81.796875 49.402344 82.160156 49.351562 82.195312 49.261719 C 82.273438 49.054688 81.941406 48.53125 81.660156 48.421875 C 81.277344 48.273438 80.195312 48.375 79.671875 48.609375 L 79.21875 48.808594 L 78.960938 48.21875 C 78.777344 47.796875 78.734375 47.597656 78.808594 47.507812 C 78.867188 47.441406 79.226562 47.28125 79.617188 47.15625 C 80.179688 46.96875 80.53125 46.921875 81.347656 46.925781 C 82.308594 46.925781 82.40625 46.945312 82.910156 47.222656 C 83.34375 47.464844 83.5 47.625 83.714844 48.046875 L 83.984375 48.570312 L 83.984375 52.832031 L 82.324219 52.832031 L 82.324219 52.539062 C 82.324219 52.195312 82.226562 52.171875 81.980469 52.441406 C 81.882812 52.550781 81.582031 52.703125 81.3125 52.785156 Z M 73.335938 52.628906 C 72.765625 52.871094 71.722656 52.96875 71.167969 52.828125 C 69.8125 52.488281 68.90625 51.472656 68.78125 50.160156 C 68.664062 48.914062 69.207031 47.882812 70.292969 47.289062 C 70.8125 47 71.03125 46.941406 71.726562 46.898438 C 72.617188 46.84375 73.324219 47.003906 73.859375 47.386719 C 74.175781 47.609375 74.726562 48.328125 74.660156 48.433594 C 74.636719 48.46875 74.332031 48.625 73.980469 48.773438 L 73.339844 49.046875 L 73 48.746094 C 71.890625 47.773438 70.429688 48.671875 70.632812 50.203125 C 70.707031 50.75 70.941406 51.0625 71.453125 51.289062 C 72.035156 51.542969 72.484375 51.460938 72.929688 51.015625 L 73.265625 50.679688 L 73.9375 50.949219 C 74.375 51.125 74.609375 51.273438 74.609375 51.378906 C 74.609375 51.664062 73.855469 52.40625 73.335938 52.628906 Z M 66.40625 50.992188 L 66.359375 52.78125 L 65.523438 52.8125 C 65.0625 52.824219 64.660156 52.8125 64.628906 52.777344 C 64.59375 52.746094 64.5625 51.425781 64.554688 49.84375 L 64.542969 46.972656 L 66.308594 46.972656 L 66.308594 47.3125 C 66.308594 47.71875 66.390625 47.742188 66.695312 47.417969 C 66.941406 47.152344 67.65625 46.875 68.085938 46.875 L 68.359375 46.875 L 68.359375 48.414062 L 67.765625 48.480469 C 67.28125 48.535156 67.109375 48.605469 66.8125 48.875 L 66.453125 49.203125 Z M 77.34375 46.972656 L 77.34375 52.832031 L 75.585938 52.832031 L 75.585938 46.972656 Z M 41.738281 51.28125 C 42.394531 51.589844 43.140625 51.40625 43.507812 50.839844 C 43.9375 50.183594 43.726562 48.890625 43.128906 48.527344 C 42.71875 48.277344 42.039062 48.28125 41.621094 48.539062 C 41.25 48.765625 40.921875 49.398438 40.921875 49.894531 C 40.917969 50.453125 41.277344 51.070312 41.738281 51.28125 Z M 77.035156 46.050781 C 76.667969 46.242188 76.277344 46.226562 75.910156 46 C 75.304688 45.632812 75.207031 44.992188 75.675781 44.523438 C 75.921875 44.277344 76.035156 44.238281 76.496094 44.238281 C 76.976562 44.238281 77.0625 44.269531 77.285156 44.539062 C 77.695312 45.027344 77.574219 45.773438 77.035156 46.050781 Z M 59.277344 49.257812 C 59.277344 49.394531 59.453125 49.414062 60.59375 49.414062 C 61.722656 49.414062 61.914062 49.390625 61.914062 49.261719 C 61.914062 48.980469 61.617188 48.539062 61.332031 48.390625 C 60.957031 48.195312 60.207031 48.203125 59.867188 48.402344 C 59.574219 48.574219 59.277344 49.007812 59.277344 49.257812 Z M 80.390625 51.507812 C 80.664062 51.699219 81.367188 51.703125 81.722656 51.523438 C 82.019531 51.367188 82.226562 51 82.226562 50.628906 C 82.226562 50.394531 82.210938 50.390625 81.457031 50.390625 C 80.828125 50.390625 80.644531 50.425781 80.433594 50.59375 C 80.105469 50.851562 80.085938 51.292969 80.390625 51.507812 Z M 80.390625 51.507812 " />
                            <path
                                style=" stroke:none;fill-rule:nonzero;fill:rgb(93.725491%,40.000001%,1.176471%);fill-opacity:1;"
                                d="M 20.984375 56.359375 C 20.777344 56.148438 20.605469 55.9375 20.605469 55.882812 C 20.605469 55.832031 20.695312 55.671875 20.808594 55.53125 C 20.984375 55.304688 21.078125 55.273438 21.585938 55.273438 C 22.558594 55.273438 22.910156 55.570312 22.613281 56.140625 C 22.410156 56.535156 22.09375 56.738281 21.695312 56.738281 C 21.441406 56.738281 21.277344 56.648438 20.984375 56.359375 Z M 19.539062 54.734375 C 18.671875 53.644531 17.316406 52.636719 15.632812 51.816406 C 15.140625 51.578125 14.695312 51.367188 14.636719 51.347656 C 14.507812 51.304688 15.246094 49.816406 15.808594 48.984375 C 16.101562 48.546875 16.179688 48.359375 16.109375 48.234375 C 16.0625 48.144531 15.902344 47.636719 15.761719 47.105469 C 15.539062 46.28125 15.5 45.945312 15.496094 44.773438 C 15.492188 43.816406 15.542969 43.171875 15.664062 42.625 C 15.761719 42.195312 15.855469 41.828125 15.875 41.804688 C 15.949219 41.734375 16.804688 42.234375 17.507812 42.761719 C 18.441406 43.457031 19.164062 44.15625 19.691406 44.875 L 20.125 45.460938 L 21.691406 45.46875 L 23.257812 45.480469 L 23.507812 45.078125 C 23.84375 44.550781 24.914062 43.441406 25.585938 42.929688 C 26.207031 42.457031 27.273438 41.796875 27.417969 41.796875 C 27.667969 41.796875 27.976562 44.046875 27.898438 45.265625 C 27.835938 46.171875 27.523438 47.597656 27.277344 48.078125 C 27.140625 48.339844 27.15625 48.382812 27.617188 49.101562 C 28.167969 49.964844 28.84375 51.265625 28.773438 51.335938 C 28.75 51.363281 28.292969 51.578125 27.765625 51.816406 C 26.207031 52.515625 24.640625 53.699219 23.640625 54.929688 C 23.328125 55.320312 23.328125 55.320312 23.390625 55.03125 C 23.585938 54.125 24.5 52.816406 25.488281 52.035156 C 25.875 51.730469 27.027344 51.066406 27.367188 50.953125 C 27.445312 50.925781 27.355469 50.730469 27.089844 50.382812 C 26.871094 50.089844 26.636719 49.75 26.570312 49.625 C 26.417969 49.339844 26.230469 49.375 25.128906 49.898438 C 23.59375 50.625 22.929688 51.570312 22.519531 53.613281 L 22.296875 54.722656 L 21.046875 54.722656 L 20.890625 53.898438 C 20.558594 52.148438 20.21875 51.367188 19.5 50.722656 C 18.9375 50.214844 18.601562 50.03125 17.609375 49.675781 L 16.910156 49.421875 L 16.679688 49.734375 C 16.554688 49.90625 16.328125 50.234375 16.183594 50.460938 L 15.917969 50.875 L 16.429688 51.132812 C 17.660156 51.757812 18.90625 52.863281 19.472656 53.828125 C 19.773438 54.347656 20.132812 55.273438 20.035156 55.273438 C 20 55.273438 19.773438 55.03125 19.539062 54.734375 Z M 18.527344 45.773438 C 18.40625 45.554688 17.964844 45.019531 17.542969 44.585938 C 16.785156 43.8125 16.769531 43.804688 16.679688 44.042969 C 16.476562 44.5625 16.726562 46.492188 17.085938 47.164062 C 17.191406 47.355469 17.230469 47.335938 17.96875 46.765625 L 18.742188 46.164062 Z M 26.421875 46.726562 C 26.617188 46.167969 26.75 43.847656 26.585938 43.847656 C 26.429688 43.847656 25.066406 45.335938 24.832031 45.761719 L 24.617188 46.15625 L 25.234375 46.609375 C 25.574219 46.859375 25.90625 47.132812 25.976562 47.21875 C 26.140625 47.414062 26.210938 47.335938 26.421875 46.726562 Z M 26.421875 46.726562 " />
                        </g>
                    </svg>